<svg width="140" height="44" viewBox="0 0 140 44" fill="none" xmlns="http://www.w3.org/2000/svg">
<path d="M72 33.832V11.656H86.976V15.848H76.992V20.2H85.856V24.296H76.992V29.64H87.712V33.832H72Z" fill="#322153"/>
<path d="M89.9112 25.416C89.9112 24.2 90.1032 23.0587 90.4872 21.992C90.8926 20.904 91.4686 19.9653 92.2153 19.176C92.9619 18.3653 93.8686 17.7253 94.9352 17.256C96.0019 16.7867 97.2179 16.552 98.5833 16.552C99.4792 16.552 100.301 16.6373 101.047 16.808C101.794 16.9573 102.519 17.1813 103.223 17.48L102.231 21.288C101.783 21.1173 101.293 20.968 100.759 20.84C100.226 20.712 99.6286 20.648 98.9673 20.648C97.5593 20.648 96.5033 21.0853 95.7992 21.96C95.1166 22.8347 94.7752 23.9867 94.7752 25.416C94.7752 26.9307 95.0953 28.104 95.7353 28.936C96.3966 29.768 97.5379 30.184 99.1593 30.184C99.7353 30.184 100.354 30.1307 101.015 30.024C101.677 29.9173 102.285 29.7467 102.839 29.512L103.511 33.416C102.957 33.6507 102.263 33.8533 101.431 34.024C100.599 34.1947 99.6819 34.28 98.6793 34.28C97.1433 34.28 95.8206 34.056 94.7113 33.608C93.6019 33.1387 92.6846 32.5093 91.9592 31.72C91.2552 30.9307 90.7326 30.0027 90.3913 28.936C90.0713 27.848 89.9112 26.6747 89.9112 25.416Z" fill="#322153"/>
<path d="M121.643 25.384C121.643 26.7067 121.451 27.9227 121.067 29.032C120.683 30.12 120.128 31.0587 119.403 31.848C118.677 32.616 117.803 33.2133 116.779 33.64C115.776 34.0667 114.645 34.28 113.387 34.28C112.149 34.28 111.019 34.0667 109.995 33.64C108.992 33.2133 108.128 32.616 107.403 31.848C106.677 31.0587 106.112 30.12 105.707 29.032C105.301 27.9227 105.099 26.7067 105.099 25.384C105.099 24.0613 105.301 22.856 105.707 21.768C106.133 20.68 106.709 19.752 107.435 18.984C108.181 18.216 109.056 17.6187 110.059 17.192C111.083 16.7653 112.192 16.552 113.387 16.552C114.603 16.552 115.712 16.7653 116.715 17.192C117.739 17.6187 118.613 18.216 119.339 18.984C120.064 19.752 120.629 20.68 121.035 21.768C121.44 22.856 121.643 24.0613 121.643 25.384ZM116.779 25.384C116.779 23.912 116.48 22.76 115.883 21.928C115.307 21.0747 114.475 20.648 113.387 20.648C112.299 20.648 111.456 21.0747 110.859 21.928C110.261 22.76 109.963 23.912 109.963 25.384C109.963 26.856 110.261 28.0293 110.859 28.904C111.456 29.7573 112.299 30.184 113.387 30.184C114.475 30.184 115.307 29.7573 115.883 28.904C116.48 28.0293 116.779 26.856 116.779 25.384Z" fill="#322153"/>
<path d="M132.056 34.152C130.67 34.1307 129.539 33.9813 128.664 33.704C127.811 33.4267 127.128 33.0427 126.616 32.552C126.126 32.04 125.784 31.432 125.592 30.728C125.422 30.0027 125.336 29.192 125.336 28.296V9.768L130.104 9V27.336C130.104 27.7627 130.136 28.1467 130.2 28.488C130.264 28.8293 130.382 29.1173 130.552 29.352C130.744 29.5867 131.011 29.7787 131.352 29.928C131.694 30.0773 132.152 30.1733 132.728 30.216L132.056 34.152Z" fill="#322153"/>
<path d="M14.642 1.84962L10.0671 10.5861C9.77168 11.1501 9.96621 11.8554 10.5046 12.1725L17.6681 16.3922C18.214 16.7137 18.9079 16.516 19.2183 15.9504L27.9745 0.000644684H17.6401C16.3892 0.000644684 15.2386 0.710173 14.642 1.84962Z" fill="#29A361"/>
<path d="M27.974 0L19.2182 15.95C18.9072 16.5154 18.2137 16.7136 17.6681 16.3923L15.7983 15.2913C16.2542 15.3674 16.7284 15.1503 16.9698 14.7099L25.0468 0H27.974Z" fill="#248F55"/>
<path d="M37.5549 8.45922L34.3995 1.94901C33.8206 0.754574 32.641 0.000644684 31.3513 0.000644684H22.228L29.2328 12.3166C29.2099 12.3273 29.1868 12.338 29.1638 12.3487C28.7232 12.5542 28.7412 13.2093 29.1923 13.3888L35.241 15.796C35.5213 15.9076 35.8358 15.7625 35.9434 15.4721L38.2751 9.17953C38.4475 8.71406 37.9948 8.26491 37.5549 8.45922Z" fill="#34CB79"/>
<path d="M38.2751 9.17899L35.9427 15.4715C35.8356 15.7627 35.5206 15.9079 35.2406 15.7958L33.4104 15.0671L35.5922 9.17899C35.7162 8.84506 35.5181 8.51988 35.2339 8.43458C34.9632 8.35326 34.7321 8.16954 34.6056 7.90858L31.7165 1.94875C31.1379 0.754706 29.9587 0 28.6685 0H31.3514C32.6407 0 33.8199 0.754706 34.3994 1.94875L37.5546 8.45945C37.9951 8.26524 38.4471 8.71361 38.2751 9.17899Z" fill="#2FB86E"/>
<path d="M31.4594 33.5593C31.3744 33.1978 30.9244 33.043 30.6498 33.3275L25.9222 38.2268C25.7336 38.4223 25.7336 38.7391 25.9222 38.9345L30.668 43.8526C30.9408 44.1353 31.3862 43.9844 31.4758 43.6291H38.4548C39.7397 43.6291 40.9156 42.8809 41.4969 41.6934L45.4791 33.5592H31.4594V33.5593Z" fill="#29A361"/>
<path d="M37.3508 33.5594L39.6137 37.1079C40.1253 37.9101 40.1819 38.9353 39.762 39.7928L38.8313 41.6935C38.2509 42.8806 37.0745 43.6293 35.79 43.6293H38.4547C39.7392 43.6293 40.9155 42.8806 41.497 41.6935L45.4789 33.5595H37.3508V33.5594Z" fill="#248F55"/>
<path d="M21.9354 42.6939V34.0356C21.9354 33.3849 21.4263 32.8572 20.7983 32.8572H2.06787L6.88812 42.0281C7.48559 43.1649 8.63469 43.8723 9.88372 43.8723H20.7983C21.4262 43.8723 21.9354 43.3448 21.9354 42.6939Z" fill="#29A361"/>
<path d="M10.0115 32.858L5.85181 40.0573L2.06787 32.858H10.0115Z" fill="#248F55"/>
<path d="M21.935 34.0358V42.6944C21.935 43.345 21.426 43.8724 20.7983 43.8724H17.8149C18.4427 43.8724 18.9517 43.345 18.9517 42.6944V34.0358C18.9517 33.3852 18.4427 32.8578 17.8149 32.8578H20.7983C21.426 32.8577 21.935 33.3852 21.935 34.0358Z" fill="#248F55"/>
<path d="M12.7847 25.2066L11.9436 18.6467C11.902 18.3226 11.6148 18.0949 11.3021 18.1379L4.94784 19.0129C4.46934 19.0788 4.29102 19.682 4.61877 20.0176L0.608522 26.0077C-0.126759 27.106 -0.201384 28.54 0.415585 29.7138L4.77955 38.0167L11.8654 25.7507C11.8679 25.7526 11.8703 25.7546 11.8729 25.7566C12.2773 26.0747 12.8515 25.7282 12.7847 25.2066Z" fill="#34CB79"/>
<path d="M11.8725 25.7566C11.8705 25.7545 11.8677 25.7526 11.8657 25.7506L4.77961 38.0163L3.32227 35.2438L9.08977 25.2586L9.2497 24.9816C9.33717 24.8302 9.50808 24.7648 9.67523 24.7984C9.67608 24.7986 9.67692 24.7987 9.67777 24.7989C10.0334 24.8646 10.3981 24.5576 10.3435 24.1362L9.60464 18.3712L11.3015 18.138C11.6145 18.095 11.9023 18.3232 11.9438 18.6464L12.785 25.2072C12.8518 25.7285 12.2771 26.0748 11.8725 25.7566Z" fill="#2FB86E"/>
<path d="M47.3959 25.5569L41.9103 17.3197C41.5739 16.8144 40.9193 16.6615 40.4062 16.9684L33.2574 21.2435C32.69 21.5828 32.5159 22.3475 32.8771 22.9139L42.9549 38.7151L47.6306 29.1643C48.1965 28.0083 48.1065 26.6239 47.3959 25.5569Z" fill="#34CB79"/>
<path d="M47.6305 29.1645L42.9541 38.7148L41.3857 36.2546L44.8568 29.1644C45.4227 28.0084 45.3329 26.6242 44.6221 25.5572L39.3306 17.6123L40.4064 16.9687C40.9193 16.6614 41.5741 16.8145 41.9102 17.32L47.3959 25.5573C48.1066 26.6243 48.1964 28.0085 47.6305 29.1645Z" fill="#2FB86E"/>
</svg>
